<svg width="51" height="52" viewBox="0 0 51 52" fill="none" xmlns="http://www.w3.org/2000/svg">
  <path fill-rule="evenodd" clip-rule="evenodd" d="M25.5 51.5C39.5833 51.5 51 40.0833 51 26C51 11.9167 39.5833 0.5 25.5 0.5C11.4167 0.5 0 11.9167 0 26C0 40.0833 11.4167 51.5 25.5 51.5Z" fill="white" fill-opacity="0.35"/>
  <path fill-rule="evenodd" clip-rule="evenodd" d="M14.5 20.5C13.3954 20.5 12.5 21.3954 12.5 22.5V29.5C12.5 30.6046 13.3954 31.5 14.5 31.5H20.5007L26.4272 37.4269C27.5611 38.5609 29.5 37.7578 29.5 36.1542V15.8458C29.5 14.2422 27.5611 13.4391 26.4272 14.5731L20.5007 20.5H14.5ZM36.5337 26C36.5337 22.9232 35.2806 20.3293 32.7264 18.1526C32.306 17.7944 32.2556 17.1632 32.6139 16.7428C32.9721 16.3225 33.6032 16.2721 34.0236 16.6303C37.0144 19.1791 38.5337 22.3241 38.5337 26C38.5337 29.6782 37.0122 32.8067 34.0174 35.3175C33.5942 35.6723 32.9635 35.6169 32.6087 35.1937C32.2538 34.7704 32.3093 34.1397 32.7325 33.7849C35.2827 31.6468 36.5337 29.0745 36.5337 26Z" fill="white"/>
  </svg>
  