<svg width="40" height="40" viewBox="0 0 40 40" fill="none" xmlns="http://www.w3.org/2000/svg">
<path fill-rule="evenodd" clip-rule="evenodd" d="M20 39.5C30.7696 39.5 39.5 30.7696 39.5 20C39.5 9.23045 30.7696 0.5 20 0.5C9.23045 0.5 0.5 9.23045 0.5 20C0.5 30.7696 9.23045 39.5 20 39.5Z" fill="white" fill-opacity="0.35"/>
<path fill-rule="evenodd" clip-rule="evenodd" d="M20 11C24.9706 11 29 14.8556 29 19.6117C29 24.3679 24.9706 28.2235 20 28.2235C19.3078 28.2235 18.6285 28.1491 17.962 28.0005L17.3649 27.8545C16.6461 27.7021 15.8985 27.7639 15.2152 28.0319L14.9899 28.1288L14.6024 28.3066C13.1664 28.9495 12.2976 29.1453 11.9958 28.8942C11.7202 28.6649 11.7913 28.0782 12.2091 27.1341C12.6295 26.184 12.6346 25.1055 12.2299 24.1556L12.137 23.9541L11.9904 23.6506C11.3301 22.239 11 20.8927 11 19.6117C11 14.8556 15.0294 11 20 11Z" fill="white"/>
</svg>
