<svg width="27" height="26" viewBox="0 0 27 26" fill="none" xmlns="http://www.w3.org/2000/svg">
  <path fill-rule="evenodd" clip-rule="evenodd" d="M10 5.99997C15.5228 5.99997 20 10.4771 20 16C20 21.5228 15.5228 26 10 26C4.47715 26 0 21.5228 0 16C0 10.4771 4.47715 5.99997 10 5.99997ZM13.9265 19.1C12.9316 20.3741 11.6466 20.9955 10 20.9955C8.35342 20.9955 7.06835 20.3741 6.0735 19.1C5.79027 18.7372 5.26658 18.6727 4.90382 18.956C4.54106 19.2392 4.47659 19.7629 4.75983 20.1257C6.07189 21.8061 7.84239 22.6621 10 22.6621C12.1576 22.6621 13.9281 21.8061 15.2402 20.1257C15.5234 19.7629 15.4589 19.2392 15.0962 18.956C14.7334 18.6727 14.2097 18.7372 13.9265 19.1ZM6.66667 12.6666C5.97631 12.6666 5.41667 13.4128 5.41667 14.3333C5.41667 15.2538 5.97631 16 6.66667 16C7.35702 16 7.91667 15.2538 7.91667 14.3333C7.91667 13.4128 7.35702 12.6666 6.66667 12.6666ZM13.3333 12.6666C12.643 12.6666 12.0833 13.4128 12.0833 14.3333C12.0833 15.2538 12.643 16 13.3333 16C14.0237 16 14.5833 15.2538 14.5833 14.3333C14.5833 13.4128 14.0237 12.6666 13.3333 12.6666ZM23.0005 5.99997C23.3318 5.99997 23.6005 6.2686 23.6005 6.59997C23.6005 7.64978 24.2281 8.32987 25.2379 8.39526L25.4015 8.40044C25.7329 8.40044 26.0015 8.66907 26.0015 9.00044C26.0015 9.29867 25.7839 9.54608 25.4988 9.59258L25.4005 9.60044C24.3511 9.60044 23.671 10.2281 23.6056 11.2379L23.6005 11.4015C23.6005 11.7328 23.3318 12.0015 23.0005 12.0015C22.7022 12.0015 22.4548 11.7839 22.4083 11.4988L22.4005 11.4004C22.4005 10.3511 21.7728 9.671 20.763 9.60562L20.6 9.60044C20.2686 9.60044 20 9.33181 20 9.00044C20 8.7022 20.2176 8.45479 20.5027 8.40829L20.6005 8.40044C21.6498 8.40044 22.3299 7.77281 22.3953 6.76302L22.4005 6.59997C22.4005 6.2686 22.6691 5.99997 23.0005 5.99997ZM17 -0.000488281C17.3314 -0.000488281 17.6 0.268141 17.6 0.599512C17.6 1.64932 18.2276 2.32941 19.2374 2.39479L19.401 2.39997C19.7324 2.39997 20.001 2.6686 20.001 2.99997C20.001 3.29821 19.7834 3.54562 19.4983 3.59212L19.4 3.59997C18.3507 3.59997 17.6706 4.2276 17.6052 5.23739L17.6 5.401C17.6 5.73237 17.3314 6.001 17 6.001C16.7018 6.001 16.4544 5.78341 16.4079 5.49832L16.4 5.39997C16.4 4.35063 15.7724 3.67054 14.7626 3.60515L14.5995 3.59997C14.2682 3.59997 13.9995 3.33135 13.9995 2.99997C13.9995 2.70174 14.2171 2.45433 14.5022 2.40783L14.6 2.39997C15.6493 2.39997 16.3294 1.77235 16.3948 0.762555L16.4 0.599512C16.4 0.268141 16.6686 -0.000488281 17 -0.000488281Z" fill="white"/>
  </svg>
  