<svg
  width="19"
  height="24"
  viewBox="0 0 19 24"
  fill="none"
  xmlns="http://www.w3.org/2000/svg"
>
  <path
    fill-rule="evenodd"
    clip-rule="evenodd"
    d="M5.00032 22H13.0003C13.5526 22 14.0003 22.4477 14.0003 23C14.0003 23.5128 13.6143 23.9355 13.1169 23.9933L13.0003 24H5.00032C4.44804 24 4.00032 23.5523 4.00032 23C4.00032 22.4872 4.38636 22.0645 4.8837 22.0067L5.00032 22H13.0003H5.00032ZM17.1015 10.6035C17.6535 10.6197 18.0879 11.0804 18.0717 11.6324C18.0296 13.0647 17.5716 14.5824 16.7945 15.9284C14.3092 20.233 8.80488 21.7079 4.50024 19.2226C1.74671 17.6329 0.072334 14.7458 0.00124132 11.6258C-0.0113402 11.0737 0.426059 10.6159 0.978201 10.6033C1.53034 10.5907 1.98814 11.0281 2.00072 11.5803C2.05607 14.0091 3.35774 16.2536 5.50024 17.4906C8.84829 19.4236 13.1294 18.2764 15.0624 14.9284C15.6792 13.86 16.0406 12.6628 16.0725 11.5737C16.0888 11.0217 16.5494 10.5873 17.1015 10.6035ZM9.00032 0C11.7617 0 14.0003 2.23858 14.0003 5V11.5C14.0003 14.2614 11.7617 16.5 9.00032 16.5C6.2389 16.5 4.00032 14.2614 4.00032 11.5V5C4.00032 2.23858 6.2389 0 9.00032 0Z"
    fill="#0584FE"
  />
</svg>
