<svg
  width="16"
  height="17"
  viewBox="0 0 16 17"
  fill="none"
  xmlns="http://www.w3.org/2000/svg"
>
  <path
    fill-rule="evenodd"
    clip-rule="evenodd"
    d="M12.6 7.09999C12.6 3.62059 9.77939 0.799988 6.3 0.799988C2.82061 0.799988 0 3.62059 0 7.09999C0 10.5794 2.82061 13.4 6.3 13.4C7.66364 13.4 8.92609 12.9667 9.95721 12.2304L13.9648 16.2376L14.057 16.3181C14.4098 16.5866 14.9154 16.5598 15.2376 16.2376C15.5891 15.8861 15.5891 15.3163 15.2376 14.9648L11.2589 10.9863C12.099 9.91574 12.6 8.56637 12.6 7.09999ZM1.2 7.09999C1.2 4.28334 3.48335 1.99999 6.3 1.99999C9.11665 1.99999 11.4 4.28334 11.4 7.09999C11.4 9.91664 9.11665 12.2 6.3 12.2C3.48335 12.2 1.2 9.91664 1.2 7.09999Z"
    fill="#8E8E93"
  />
</svg>
